inDegrees=yes
name=ik_lifting_orientations
DataType=double
version=3
OpenSimVersion=4.5-2024-01-10-34fd6af
endheader
time	pelvis_tilt	pelvis_list	pelvis_rotation	pelvis_tx	pelvis_ty	pelvis_tz	hip_flexion_r	hip_adduction_r	hip_rotation_r	knee_angle_r	knee_angle_r_beta	ankle_angle_r	subtalar_angle_r	mtp_angle_r	hip_flexion_l	hip_adduction_l	hip_rotation_l	knee_angle_l	knee_angle_l_beta	ankle_angle_l	subtalar_angle_l	mtp_angle_l	lumbar_extension	lumbar_bending	lumbar_rotation	arm_flex_r	arm_add_r	arm_rot_r	elbow_flex_r	pro_sup_r	wrist_flex_r	wrist_dev_r	arm_flex_l	arm_add_l	arm_rot_l	elbow_flex_l	pro_sup_l	wrist_flex_l	wrist_dev_l
0.5600000000000001	-10.27673589983551	-10.45975230431642	-90.49693013746467	0	0.9399999998679526	0	45.98750275117852	-10.42178766383377	0	61.21329067615208	1.0683734682792	-4.691415050144247	0	0	45.98750275117852	-10.42178766383377	0	61.21329067615208	1.0683734682792	-4.691415050144247	0	0	-15.65395931690508	15.75901562332884	0.7210653449038629	0.3585191554564957	-6.910686224525636	6.637229713534909	4.896731167865543	0.9433033620711021	0	0	0	-9.778503881340097	0	89.1346355303418	0.9433033620711021	0	0
0.57	-10.15797961700486	-10.35546959815978	-90.48117084712446	0	0.9399999998679526	0	45.98734058109283	-10.42154574043109	0	61.21313423199399	1.068370737813546	-4.691645903550647	0	0	45.98734058109283	-10.42154574043109	0	61.21313423199399	1.068370737813546	-4.691645903550647	0	0	-15.47222388580836	15.56808749549952	0.8179648708275545	0.467796738714866	-7.0701954061608	6.393397368867561	4.844079100702088	0.943195572950414	0	0	0	-9.778943926499357	0	89.13473439261703	0.943195572950414	0	0
0.58	-10.0239562905514	-10.18482408831783	-90.59707267024409	0	0.9399999998679526	0	45.98709839620881	-10.42118478628013	0	61.21290051994085	1.068366658768717	-4.691990234060063	0	0	45.98709839620881	-10.42118478628013	0	61.21290051994085	1.068366658768717	-4.691990234060063	0	0	-15.22029757448432	15.28021537150345	1.08606833857116	0.6774134336207168	-7.036304163554514	6.107723019820555	4.686999848900263	0.9430345719642903	0	0	0	-9.77960129342542	0	89.13488205987659	0.9430345719642903	0	0
0.59	-9.899971151713309	-10.04213986930452	-90.70444062989972	0	0.9399999998679526	0	45.9868072091933	-10.42075007588465	0	61.21261999457212	1.068361762677397	-4.692405007931724	0	0	45.9868072091933	-10.42075007588465	0	61.21261999457212	1.068361762677397	-4.692405007931724	0	0	-15.01398646696352	15.01737958092242	1.322566927260216	1.070937478921932	-7.026631120203431	5.876739734494688	4.500793454664381	0.9428411114699395	0	0	0	-9.78039078499013	0	89.13505949841489	0.9428411114699395	0	0
0.6	-9.735455906517661	-9.88288637360427	-90.63810716652691	0	0.9399999998679526	0	45.98650204799954	-10.42029448426199	0	61.21232617819019	1.068356634614136	-4.692839631628759	0	0	45.98650204799954	-10.42029448426199	0	61.21232617819019	1.068356634614136	-4.692839631628759	0	0	-14.76114280078976	14.80603986007404	0.9826140660392472	1.580426620727947	-7.030270571599084	5.894899418397918	4.329518899506621	0.9426383990680097	0	0	0	-9.781217901774381	0	89.13524542263676	0.9426383990680097	0	0
0.61	-9.567585942742811	-9.712617207539129	-90.56083096675114	0	0.9399999998679526	0	45.98614085579539	-10.41975523890292	0	61.21197861139657	1.068350568429217	-4.693353964015551	0	0	45.98614085579539	-10.41975523890292	0	61.21197861139657	1.068350568429217	-4.693353964015551	0	0	-14.55804109321335	14.67090709768747	0.5596680692912471	2.119422785014256	-7.149953609672322	5.730539379713918	4.263550387430246	0.9423985017842795	0	0	0	-9.782196598543676	0	89.13546545217095	0.9423985017842795	0	0
0.62	-9.425980586468937	-9.612440696390383	-90.48979920263305	0	0.9399999998679526	0	45.98594449060602	-10.41946296469803	0	61.21178929800583	1.06834726428723	-4.693632520535183	0	0	45.98594449060602	-10.41946296469803	0	61.21178929800583	1.06834726428723	-4.693632520535183	0	0	-14.42174484415116	14.59489717905471	0.2706968272314016	2.62945128078033	-7.351056179906085	5.409979507699128	4.3130181601658	0.9422679761056956	0	0	0	-9.782729438877405	0	89.13558516801679	0.9422679761056956	0	0
0.63	-9.216371975201154	-9.412396384223186	-90.25921722837441	0	0.9399999998679526	0	45.98564054026412	-10.41901005645391	0	61.2114966622878	1.068342156830442	-4.694064197986522	0	0	45.98564054026412	-10.41901005645391	0	61.2114966622878	1.068342156830442	-4.694064197986522	0	0	-14.15113326692521	14.44701193337334	-0.3156590377716965	3.224234363905406	-7.508176926232576	5.201404458617293	4.195282997472317	0.9420660323885524	0	0	0	-9.78355348501983	0	89.1357703872186	0.9420660323885524	0	0
0.64	-8.994159706966975	-9.212687150945602	-90.02476311504103	0	0.9399999998679526	0	45.98531721387838	-10.41852849573992	0	61.21118543711727	1.068336724926501	-4.694523058339013	0	0	45.98531721387838	-10.41852849573992	0	61.21118543711727	1.068336724926501	-4.694523058339013	0	0	-13.85243550416893	14.28331775147817	-1.025783045818442	3.811123104617225	-7.718565939715566	5.053812794716672	4.001097913654792	0.9418512174546929	0	0	0	-9.784430024317535	0	89.13596741167272	0.9418512174546929	0	0
0.65	-8.703952719498607	-8.927798792806074	-89.89668273403419	0	0.9399999998679526	0	45.98496222519353	-10.4180001496321	0	61.21084373986361	1.068330761184379	-4.695026334024569	0	0	45.98496222519353	-10.4180001496321	0	61.21084373986361	1.068330761184379	-4.695026334024569	0	0	-13.49636801370787	14.02598327949124	-1.630905510147315	4.382501782717252	-7.86541720615792	4.879127031961779	3.720452935762198	0.941615350239166	0	0	0	-9.785392499203914	0	89.13618374490876	0.941615350239166	0	0
0.66	-8.447406589516287	-8.685007796047907	-89.84744499960061	0	0.9399999998679526	0	45.98464683567591	-10.41753136763146	0	61.21054002703902	1.06832546039561	-4.695472664053747	0	0	45.98464683567591	-10.41753136763146	0	61.21054002703902	1.06832546039561	-4.695472664053747	0	0	-13.18213148813039	13.80231957602448	-2.243520983108979	4.96803429953425	-8.054787575274274	4.882788337785042	3.154107270374772	0.9414057427168168	0	0	0	-9.786247971900004	0	89.13637599322335	0.9414057427168168	0	0
0.67	-8.323679450667161	-8.552129065342267	-89.94737665415202	0	0.9399999998679526	0	45.98426906637106	-10.41696999291971	0	61.21017638896063	1.068319113713856	-4.696007026979728	0	0	45.98426906637106	-10.41696999291971	0	61.21017638896063	1.068319113713856	-4.696007026979728	0	0	-12.99261806436744	13.62928294662801	-2.799301903676646	5.454185097072388	-8.241328306399605	4.899896811401592	2.70104408201835	0.9411546974760832	0	0	0	-9.78727247349798	0	89.13660624747997	0.9411546974760832	0	0
0.68	-8.137152300930822	-8.355142883172659	-89.93527060451147	0	0.9399999998679526	0	45.98399270112792	-10.41655995843635	0	61.20991019320054	1.068314467721388	-4.696397131173166	0	0	45.98399270112792	-10.41655995843635	0	61.20991019320054	1.068314467721388	-4.696397131173166	0	0	-12.70603908946396	13.42664107161845	-3.437930243371835	5.975747202319463	-8.459483738790894	4.836430547855638	2.055887111465071	0.9409709811279977	0	0	0	-9.788022389658295	0	89.13677474887147	0.9409709811279977	0	0
0.6899999999999999	-7.964233490446981	-8.168436928951415	-89.93574974540152	0	0.9399999998679526	0	45.98377581201114	-10.41623950003146	0	61.20970071831358	1.06831081169491	-4.696701708677951	0	0	45.98377581201114	-10.41623950003146	0	61.20970071831358	1.06831081169491	-4.696701708677951	0	0	-12.39709315863012	13.10785835713877	-3.263537446894043	6.260148897735983	-8.629568115527755	3.960967204293585	1.468882164627576	0.9408266415678815	0	0	0	-9.788612104664457	0	89.13690713458078	0.9408266415678815	0	0
0.7	-7.866980720939263	-8.042070915095501	-90.1913485061757	0	0.9399999998679526	0	45.98346921064802	-10.41578624981046	0	61.20940483102462	1.068305647487503	-4.697132488809796	0	0	45.98346921064802	-10.41578624981046	0	61.20940483102462	1.068305647487503	-4.697132488809796	0	0	-12.18656010687906	12.74422297800827	-2.719272893565341	6.412926542116969	-8.766616591758723	2.909685822238016	0.9747630822534602	0.940622649946759	0	0	0	-9.789445348855073	0	89.13709423210911	0.940622649946759	0	0
0.71	-7.717756960902248	-7.870639132437597	-90.35510323348306	0	0.9399999998679526	0	45.98319188214786	-10.41537603352205	0	61.2091374433374	1.068300980691982	-4.697522352950177	0	0	45.98319188214786	-10.41537603352205	0	61.2091374433374	1.068300980691982	-4.697522352950177	0	0	-11.90153176979819	12.3872625181457	-2.608092904895277	6.56287920242328	-8.94084578331565	2.286122369087818	0.5913074122191762	0.9404381897104881	0	0	0	-9.79019861067381	0	89.13726341579081	0.9404381897104881	0	0
0.72	-7.56820607381116	-7.708914284842132	-90.51117253926475	0	0.9399999998679526	0	45.98299827073102	-10.41509022449243	0	61.20895054803469	1.068297718753593	-4.697793839783006	0	0	45.98299827073102	-10.41509022449243	0	61.20895054803469	1.068297718753593	-4.697793839783006	0	0	-11.64615517922273	12.08249450420626	-2.60090281438573	6.685340130160318	-9.164452364713661	1.772167035759332	0.3011568512694783	0.9403093461210389	0	0	0	-9.790724974640195	0	89.13738158886842	0.9403093461210389	0	0
0.73	-7.443453574782919	-7.55187330502052	-90.66642227605517	0	0.9399999998679526	0	45.98278979443963	-10.41478242770193	0	61.20874939535947	1.068294207977111	-4.698086187998705	0	0	45.98278979443963	-10.41478242770193	0	61.20874939535947	1.068294207977111	-4.698086187998705	0	0	-11.3932451169839	11.79081631946523	-2.668873177287223	6.773757510217213	-9.327357975117774	1.457510232416676	0.1930788391365295	0.9401706287959611	0	0	0	-9.791291604523243	0	89.13750881796173	0.9401706287959611	0	0
0.74	-7.283934034989522	-7.378552069935251	-90.82884374419874	0	0.9399999998679526	0	45.98253542676622	-10.41440665570976	0	61.20850418322406	1.068289928217982	-4.698443090452408	0	0	45.98253542676622	-10.41440665570976	0	61.20850418322406	1.068289928217982	-4.698443090452408	0	0	-11.13222735499026	11.49219076397138	-2.86723434592403	6.735426025984153	-9.575875404681618	1.276173833052491	0.1423658533395052	0.940001425377214	0	0	0	-9.791982582184339	0	89.13766400836089	0.940001425377214	0	0
0.75	-7.140711772640934	-7.186487725288275	-91.22717424911355	0	0.9399999998679526	0	45.98226809175255	-10.41401225913346	0	61.20824629982511	1.068285427303584	-4.698817533127809	0	0	45.98226809175255	-10.41401225913346	0	61.20824629982511	1.068285427303584	-4.698817533127809	0	0	-10.88144090511242	11.16034789690267	-2.866880613784071	6.634575314951144	-9.831900852004113	1.164149251024794	0.1254115231007628	0.9398235411011056	0	0	0	-9.792709186709171	0	89.13782716069439	0.9398235411011056	0	0
0.76	-6.936877881405185	-6.966582191997611	-91.42813142445934	0	0.9399999998679526	0	45.98194440804784	-10.41353443480381	0	61.20793439409851	1.068279983521699	-4.69927115295905	0	0	45.98194440804784	-10.41353443480381	0	61.20793439409851	1.068279983521699	-4.69927115295905	0	0	-10.57097560900603	10.83459032937599	-3.26451600955654	6.600270619532934	-10.09958501899833	1.306591343357649	0.1253311308501765	0.9396082366456598	0	0	0	-9.793588365578675	0	89.13802463415369	0.9396082366456598	0	0
0.77	-6.676481071046316	-6.707412952313039	-91.4069900148866	0	0.9399999998679526	0	45.98164696217555	-10.41309582436931	0	61.20764769649532	1.068274979704566	-4.699687373609149	0	0	45.98164696217555	-10.41309582436931	0	61.20764769649532	1.068274979704566	-4.699687373609149	0	0	-10.17105207958064	10.48531007066003	-3.917958458044224	6.541516913974988	-10.34891388575133	1.668523783081799	0.1325566098461126	0.9394103502781936	0	0	0	-9.794396515061889	0	89.13820613205215	0.9394103502781936	0	0
0.78	-6.429067686782714	-6.453424530096979	-91.45060437708376	0	0.9399999998679526	0	45.98133998280481	-10.41264355785681	0	61.20735176201937	1.068269814673591	-4.700116402419646	0	0	45.98133998280481	-10.41264355785681	0	61.20735176201937	1.068269814673591	-4.700116402419646	0	0	-9.772317179733635	10.09610625067028	-4.194246627831767	6.441530360397874	-10.55279551903096	1.807602127246698	0.1353778998257454	0.9392060947710704	0	0	0	-9.795230747418175	0	89.13839347161606	0.9392060947710704	0	0
0.79	-6.172948145074712	-6.212023515840575	-91.24991352917986	0	0.9399999998679526	0	45.9810796819254	-10.41226051709246	0	61.2071007260644	1.068265433269636	-4.700479613819144	0	0	45.9810796819254	-10.41226051709246	0	61.2071007260644	1.068265433269636	-4.700479613819144	0	0	-9.356483295199908	9.743007818502877	-4.699923281357689	6.395198399302378	-10.77097152581358	1.977707285058674	0.1498433773710526	0.9390328595907123	0	0	0	-9.795938398582598	0	89.13855235988433	0.9390328595907123	0	0
